# 3ds Max Wavefront OBJ Exporter v0.99 - (c)2007 guruware
# File Created: 11.11.2023 19:43:47

mtllib mesa.mtl

#
# object Table_Cube_001
#

v  1.1845 1.5457 0.6925
v  1.1845 1.5457 -0.6925
v  1.1845 1.4446 -0.6925
v  1.1845 1.4446 -0.0000
v  1.1845 1.4446 0.6925
v  3.9190 1.5457 -0.6925
v  3.9190 1.4446 -0.6925
v  2.5517 1.4446 -0.6925
v  3.9190 1.5457 0.6925
v  3.9190 1.4446 0.6925
v  3.9190 1.4446 -0.0000
v  2.5517 1.4446 0.6925
v  2.5517 1.4446 -0.0000
v  1.1845 1.5493 -0.0000
v  1.1845 1.5493 0.6925
v  2.5517 1.5493 0.6925
v  2.5517 1.5493 -0.0000
v  3.9190 1.5493 0.6925
v  1.1845 1.5493 -0.6925
v  2.5517 1.5493 -0.6925
v  3.9190 1.5493 -0.6925
v  3.9190 1.5493 -0.0000
v  1.2709 1.4448 0.6042
v  1.2709 1.4448 0.6916
v  1.2709 0.2062 0.6916
v  1.2709 0.2062 0.6042
v  1.1850 1.4448 0.6916
v  1.1850 0.2062 0.6916
v  1.1850 1.4448 0.6042
v  1.1850 0.2062 0.6042
v  1.2709 1.4448 -0.6920
v  1.2709 1.4448 -0.6046
v  1.2709 0.2062 -0.6046
v  1.2709 0.2062 -0.6920
v  1.1850 1.4448 -0.6046
v  1.1850 0.2062 -0.6046
v  1.1850 1.4448 -0.6920
v  1.1850 0.2062 -0.6920
v  3.9175 1.4448 0.6042
v  3.9175 1.4448 0.6916
v  3.9175 0.2062 0.6916
v  3.9175 0.2062 0.6042
v  3.8315 1.4448 0.6916
v  3.8315 0.2062 0.6916
v  3.8315 1.4448 0.6042
v  3.8315 0.2062 0.6042
v  3.9187 1.4448 -0.6915
v  3.9187 1.4448 -0.6041
v  3.9187 0.2062 -0.6041
v  3.9187 0.2062 -0.6915
v  3.8327 1.4448 -0.6041
v  3.8327 0.2062 -0.6041
v  3.8327 1.4448 -0.6915
v  3.8327 0.2062 -0.6915
v  3.9175 0.2062 0.6047
v  3.8315 0.2062 0.6047
v  3.8328 0.2062 -0.6049
v  3.9187 0.2062 -0.6049
v  3.8315 0.2919 0.6047
v  3.8328 0.2919 -0.6049
v  3.9175 0.2919 0.6047
v  3.9187 0.2919 -0.6049
v  1.1850 0.2919 0.6042
v  1.1850 0.2919 -0.6046
v  1.2709 0.2919 0.6042
v  1.2709 0.2919 -0.6046
# 66 vertices

vn -1.0000 0.0000 0.0000
vn 0.0000 0.0000 -1.0000
vn 1.0000 0.0000 0.0000
vn 0.0000 0.0000 1.0000
vn 0.0000 -1.0000 0.0000
vn 0.0000 1.0000 0.0000
vn -1.0000 0.0000 -0.0011
vn 1.0000 0.0000 0.0010
vn 0.0000 0.0003 -1.0000
vn 0.0000 -0.0003 1.0000
# 10 vertex normals

vt 1.2812 0.9973 -0.0000
vt -0.2812 0.9973 0.0000
vt -0.2812 0.9221 0.0000
vt 0.5000 0.9221 0.0000
vt 1.2812 0.9221 -0.0000
vt 1.0000 0.9973 1.2812
vt 0.0000 0.9973 1.2812
vt 0.0000 0.9221 1.2812
vt 0.5000 0.9221 1.2812
vt 1.0000 0.9221 1.2812
vt 1.2812 0.9973 1.0000
vt -0.2812 0.9973 1.0000
vt -0.2812 0.9221 1.0000
vt 0.5000 0.9221 1.0000
vt 1.2812 0.9221 1.0000
vt 1.0000 0.9973 -0.2812
vt -0.0000 0.9973 -0.2812
vt -0.0000 0.9221 -0.2812
vt 0.5000 0.9221 -0.2812
vt 1.0000 0.9221 -0.2812
vt 0.0000 0.5000 0.9221
vt 0.0000 -0.2812 0.9221
vt 0.5000 -0.2812 0.9221
vt 0.5000 0.5000 0.9221
vt -0.2812 0.9973 -0.0000
vt 0.0000 1.2812 0.9973
vt -0.0000 -0.2812 0.9973
vt 1.0000 -0.2812 0.9973
vt 1.0000 1.2812 0.9973
vt 1.2812 0.9973 0.0000
vt 0.0000 -0.2812 0.9973
vt 0.0000 0.5000 1.0000
vt -0.0000 -0.2812 1.0000
vt 0.5000 -0.2812 1.0000
vt 0.5000 0.5000 1.0000
vt 1.0000 1.0000 -0.2812
vt 0.5000 1.0000 -0.2812
vt -0.0000 1.0000 -0.2812
vt 1.0000 1.0000 1.2812
vt 0.5000 1.0000 1.2812
vt 0.0000 1.0000 1.2812
vt 1.2812 1.0000 1.0000
vt 0.5000 1.0000 1.0000
vt -0.2812 1.0000 1.0000
vt 1.2812 1.0000 -0.0000
vt 0.5000 1.0000 0.0000
vt -0.2812 1.0000 0.0000
vt -0.1816 0.9222 0.0316
vt -0.2802 0.9222 0.0316
vt -0.2802 0.0000 0.0316
vt -0.1816 0.0000 0.0316
vt 0.0316 0.9222 -0.2802
vt 0.0002 0.9222 -0.2802
vt 0.0002 0.0000 -0.2802
vt 0.0316 0.0000 -0.2802
vt 1.2802 0.9222 0.0002
vt 1.1816 0.9222 0.0002
vt 1.1816 0.0000 0.0002
vt 1.2802 0.0000 0.0002
vt 0.9998 0.9222 -0.1816
vt 0.9684 0.9222 -0.1816
vt 0.9684 0.0000 -0.1816
vt 0.9998 0.0000 -0.1816
vt 0.9998 -0.2802 0.0000
vt 0.9998 -0.1816 0.0000
vt 0.9684 -0.1816 0.0000
vt 0.9684 -0.2802 0.0000
vt 0.0316 -0.2802 0.9222
vt 0.0316 -0.1816 0.9222
vt 0.0002 -0.1816 0.9222
vt 0.0002 -0.2802 0.9222
vt 1.2807 0.9222 0.0316
vt 1.1821 0.9222 0.0316
vt 1.1821 0.0000 0.0316
vt 1.2807 0.0000 0.0316
vt 0.0316 0.9222 1.1821
vt 0.0002 0.9222 1.1821
vt 0.0002 0.0000 1.1821
vt 0.0316 0.0000 1.1821
vt -0.1821 0.9222 0.0002
vt -0.2807 0.9222 0.0002
vt -0.2807 0.0000 0.0002
vt -0.1821 0.0000 0.0002
vt 0.9998 0.9222 1.2807
vt 0.9684 0.9222 1.2807
vt 0.9684 0.0000 1.2807
vt 0.9998 0.0000 1.2807
vt 0.9998 1.1821 0.0000
vt 0.9998 1.2807 0.0000
vt 0.9684 1.2807 0.0000
vt 0.9684 1.1821 0.0000
vt 0.0316 1.1821 0.9222
vt 0.0316 1.2807 0.9222
vt 0.0002 1.2807 0.9222
vt 0.0002 1.1821 0.9222
vt -0.1816 0.9222 0.9995
vt -0.2802 0.9222 0.9995
vt -0.2802 0.0000 0.9995
vt -0.1816 0.0000 0.9995
vt 0.9995 0.9222 -0.2802
vt 0.9680 0.9222 -0.2802
vt 0.9680 0.0000 -0.2802
vt 0.9995 0.0000 -0.2802
vt 1.2802 0.9222 0.9680
vt 1.1816 0.9222 0.9680
vt 1.1816 0.0000 0.9680
vt 1.2802 0.0000 0.9680
vt 0.0320 0.9222 -0.1816
vt 0.0005 0.9222 -0.1816
vt 0.0005 0.0000 -0.1816
vt 0.0320 0.0000 -0.1816
vt 0.0320 -0.2802 0.0000
vt 0.0320 -0.1816 0.0000
vt 0.0005 -0.1816 0.0000
vt 0.0005 -0.2802 0.0000
vt 0.9995 -0.2802 0.9222
vt 0.9995 -0.1816 0.9222
vt 0.9680 -0.1816 0.9222
vt 0.9680 -0.2802 0.9222
vt 1.2801 0.9222 0.9999
vt 1.1816 0.9222 0.9999
vt 1.1816 0.0000 0.9999
vt 1.2801 0.0000 0.9999
vt 0.9999 0.9222 1.1816
vt 0.9685 0.9222 1.1816
vt 0.9685 0.0000 1.1816
vt 0.9999 0.0000 1.1816
vt -0.1816 0.9222 0.9685
vt -0.2801 0.9222 0.9685
vt -0.2801 0.0000 0.9685
vt -0.1816 0.0000 0.9685
vt 0.0315 0.9222 1.2801
vt 0.0001 0.9222 1.2801
vt 0.0001 0.0000 1.2801
vt 0.0315 0.0000 1.2801
vt 0.0315 1.1816 0.0000
vt 0.0315 1.2801 0.0000
vt 0.0001 1.2801 0.0000
vt 0.0001 1.1816 0.0000
vt 0.9999 1.1816 0.9222
vt 0.9999 1.2801 0.9222
vt 0.9685 1.2801 0.9222
vt 0.9685 1.1816 0.9222
vt 0.0005 -0.1822 -0.0000
vt 0.0320 -0.1822 -0.0000
vt 0.0315 1.1825 -0.0000
vt 0.0001 1.1825 -0.0000
vt 1.1822 -0.0000 0.9680
vt 1.1822 0.0638 0.9680
vt -0.1825 0.0638 0.9685
vt -0.1825 -0.0000 0.9685
vt 0.9680 -0.1822 0.0638
vt 0.9995 -0.1822 0.0638
vt 0.9999 1.1825 0.0638
vt 0.9685 1.1825 0.0638
vt -0.1822 0.0638 0.9995
vt -0.1822 -0.0000 0.9995
vt 1.1825 -0.0000 0.9999
vt 1.1825 0.0638 0.9999
vt 0.0315 0.0638 1.1825
vt 0.0001 0.0638 1.1825
vt 0.0001 -0.0000 1.1825
vt 0.0315 -0.0000 1.1825
vt 0.9680 -0.0000 -0.1822
vt 0.9995 -0.0000 -0.1822
vt 0.9995 0.0638 -0.1822
vt 0.9680 0.0638 -0.1822
vt 1.1817 0.0638 0.0002
vt -0.1821 0.0638 0.0002
vt 0.0002 -0.1817 0.0638
vt 0.0316 -0.1817 0.0638
vt 0.0316 1.1821 0.0638
vt 0.0002 1.1821 0.0638
vt -0.1817 0.0638 0.0316
vt 1.1821 0.0638 0.0316
vt 0.9998 0.0638 1.1821
vt 0.9684 0.0638 1.1821
vt 0.9684 0.0000 1.1821
vt 0.9998 0.0000 1.1821
vt 0.0002 0.0000 -0.1816
vt 0.0316 0.0000 -0.1816
vt 0.0316 0.0638 -0.1817
vt 0.0002 0.0638 -0.1817
vt 1.0000 -0.2812 1.0000
vt 1.0000 0.5000 1.0000
vt 0.5000 1.2812 1.0000
vt 1.0000 1.2812 1.0000
vt 0.0000 1.2812 1.0000
vt 1.0000 -0.2812 0.9221
vt 1.0000 0.5000 0.9221
vt 0.5000 1.2812 0.9221
vt 1.0000 1.2812 0.9221
vt 0.0000 1.2812 0.9221
# 193 texture coords

o Table_Cube_001
g Table_Cube_001
usemtl Material
s off
f 1/1/1 2/2/1 3/3/1 4/4/1 5/5/1 
f 2/6/2 6/7/2 7/8/2 8/9/2 3/10/2 
f 6/11/3 9/12/3 10/13/3 11/14/3 7/15/3 
f 9/16/4 1/17/4 5/18/4 12/19/4 10/20/4 
f 11/21/5 10/22/5 12/23/5 13/24/5 
f 9/12/4 1/25/4 1/25/4 9/12/4 
f 2/26/6 1/27/6 9/28/6 6/29/6 
f 2/30/4 6/11/4 6/11/4 2/30/4 
f 6/11/4 9/12/4 9/12/4 6/11/4 
f 1/25/4 2/30/4 2/30/4 1/25/4 
f 9/31/5 1/28/5 2/29/5 6/26/5 
f 14/32/6 15/33/6 16/34/6 17/35/6 
f 1/17/4 9/16/4 18/36/4 16/37/4 15/38/4 
f 6/7/2 2/6/2 19/39/2 20/40/2 21/41/2 
f 9/12/3 6/11/3 21/42/3 22/43/3 18/44/3 
f 2/2/1 1/1/1 15/45/1 14/46/1 19/47/1 
f 23/48/3 24/49/3 25/50/3 26/51/3 
f 24/52/4 27/53/4 28/54/4 25/55/4 
f 27/56/1 29/57/1 30/58/1 28/59/1 
f 29/60/2 23/61/2 26/62/2 30/63/2 
f 28/64/5 30/65/5 26/66/5 25/67/5 
f 24/68/6 23/69/6 29/70/6 27/71/6 
f 31/72/3 32/73/3 33/74/3 34/75/3 
f 32/76/4 35/77/4 36/78/4 33/79/4 
f 35/80/1 37/81/1 38/82/1 36/83/1 
f 37/84/2 31/85/2 34/86/2 38/87/2 
f 36/88/5 38/89/5 34/90/5 33/91/5 
f 32/92/6 31/93/6 37/94/6 35/95/6 
f 39/96/3 40/97/3 41/98/3 42/99/3 
f 40/100/4 43/101/4 44/102/4 41/103/4 
f 43/104/1 45/105/1 46/106/1 44/107/1 
f 45/108/2 39/109/2 42/110/2 46/111/2 
f 44/112/5 46/113/5 42/114/5 41/115/5 
f 40/116/6 39/117/6 45/118/6 43/119/6 
f 47/120/3 48/121/3 49/122/3 50/123/3 
f 48/124/4 51/125/4 52/126/4 49/127/4 
f 51/128/1 53/129/1 54/130/1 52/131/1 
f 53/132/2 47/133/2 50/134/2 54/135/2 
f 52/136/5 54/137/5 50/138/5 49/139/5 
f 48/140/6 47/141/6 53/142/6 51/143/6 
f 55/144/5 56/145/5 57/146/5 58/147/5 
f 56/148/7 59/149/7 60/150/7 57/151/7 
f 59/152/6 61/153/6 62/154/6 60/155/6 
f 61/156/8 55/157/8 58/158/8 62/159/8 
f 60/160/2 62/161/2 58/162/2 57/163/2 
f 56/164/4 55/165/4 61/166/4 59/167/4 
f 26/66/5 30/65/5 36/88/5 33/91/5 
f 30/58/1 63/168/1 64/169/1 36/83/1 
f 63/170/6 65/171/6 66/172/6 64/173/6 
f 65/174/3 26/51/3 33/74/3 66/175/3 
f 64/176/9 66/177/9 33/178/9 36/179/9 
f 30/180/10 26/181/10 65/182/10 63/183/10 
f 17/35/6 16/34/6 18/184/6 22/185/6 
f 20/186/6 17/35/6 22/185/6 21/187/6 
f 19/188/6 14/32/6 17/35/6 20/186/6 
f 13/24/5 12/23/5 5/189/5 4/190/5 
f 8/191/5 13/24/5 4/190/5 3/192/5 
f 7/193/5 11/21/5 13/24/5 8/191/5 
# 58 polygons

